<svg id="Layer_1" data-name="Layer 1" xmlns="http://www.w3.org/2000/svg" viewBox="0 0 400 43.83"><defs><style>.cls-1{fill:#1e64e7;}.cls-2{fill:#2f3a59;}</style></defs><path class="cls-1" d="M88.34,33A11.13,11.13,0,1,1,99.46,21.86v.06A11.14,11.14,0,0,1,88.34,33Zm0-16.86a5.74,5.74,0,1,0,5.73,5.75h0a5.74,5.74,0,0,0-5.73-5.7Z"/><path class="cls-2" d="M103.51,43.83H7.75A7.76,7.76,0,0,1,0,36.08V7.75A7.76,7.76,0,0,1,7.75,0h95.76a7.77,7.77,0,0,1,7.76,7.75V36.08A7.77,7.77,0,0,1,103.51,43.83ZM7.75,5.39A2.36,2.36,0,0,0,5.39,7.75h0V36.08a2.36,2.36,0,0,0,2.36,2.36h95.76a2.36,2.36,0,0,0,2.36-2.36h0V7.75a2.36,2.36,0,0,0-2.36-2.36H7.75Z"/><path class="cls-1" d="M64.48,33H17.61a7.76,7.76,0,0,1-7.75-7.75V18.54a7.76,7.76,0,0,1,7.75-7.75H64.48a7.77,7.77,0,0,1,7.76,7.75v6.75A7.78,7.78,0,0,1,64.48,33ZM17.61,16.18a2.36,2.36,0,0,0-2.36,2.36h0v6.75a2.36,2.36,0,0,0,2.36,2.36H64.48a2.36,2.36,0,0,0,2.36-2.36h0V18.54a2.36,2.36,0,0,0-2.36-2.36H17.61Z"/><path class="cls-1" d="M130.88,9.15H120.4V4.57h26.24V9.15H136.19V38.78h-5.31Z"/><path class="cls-1" d="M143.13,26.4h0c0-7.8,4.51-13,11.5-13s11.29,5,11.29,12.52v1.73H148.25c.1,4.72,2.68,7.47,6.76,7.47,3,0,5.05-1.56,5.69-3.44l.07-.19h4.86v.26c-.8,4-4.64,7.57-10.69,7.57C147.57,39.28,143.13,34.27,143.13,26.4Zm5.19-2.4h12.52c-.42-4.32-2.84-6.43-6.19-6.43S148.78,19.81,148.32,24Z"/><path class="cls-1" d="M168.81,31.64v-.21h5.08v.24c.48,2.3,2.19,3.65,5.34,3.65s4.93-1.28,4.93-3.3h0c0-1.61-.9-2.54-3.58-3.18l-4.08-.92c-4.74-1.09-7.09-3.37-7.09-7h0c0-4.46,3.89-7.52,9.63-7.52,5.9,0,9.46,3.3,9.72,7.54v.29H184v-.17c-.31-2.18-2-3.7-4.91-3.7s-4.48,1.31-4.48,3.3h0c0,1.54,1,2.59,3.7,3.23l4,.92c5.1,1.19,7,3.2,7,6.78h0c0,4.55-4.27,7.68-10.14,7.68C173,39.28,169.33,36.19,168.81,31.64Z"/><path class="cls-1" d="M194.77,32.21V17.92h-3.58V13.84h3.58V7.34H200v6.5h4.67v4.08H200v14c0,2.54,1.13,3.3,3.29,3.3a10.67,10.67,0,0,0,1.38-.1v4a16.32,16.32,0,0,1-2.61.22C197.14,39.28,194.77,37.19,194.77,32.21Z"/><path class="cls-2" d="M219.42,4.57h5.74l12.42,34.21H232l-3.13-9.25H215.7l-3.15,9.25H207Zm-2.3,20.7h10.32l-5.1-15h-.1Z"/><path class="cls-2" d="M239.57,31.64v-.21h5.07v.24c.47,2.3,2.18,3.65,5.33,3.65s4.94-1.28,4.94-3.3h0c0-1.61-.91-2.54-3.58-3.18l-4.08-.92c-4.74-1.09-7.09-3.37-7.09-7h0c0-4.46,3.89-7.52,9.63-7.52,5.9,0,9.45,3.3,9.71,7.54v.29h-4.81v-.17c-.31-2.18-2-3.7-4.9-3.7s-4.49,1.31-4.49,3.3h0c0,1.54,1,2.59,3.7,3.23l4.06.92c5.09,1.19,7,3.2,7,6.78h0c0,4.55-4.27,7.68-10.15,7.68C243.75,39.28,240.1,36.19,239.57,31.64Z"/><path class="cls-2" d="M263,31.64v-.21h5.07l.05.24c.47,2.3,2.18,3.65,5.33,3.65s4.93-1.28,4.93-3.3h0c0-1.61-.9-2.54-3.58-3.18l-4.08-.92c-4.74-1.09-7.08-3.37-7.08-7h0c0-4.46,3.88-7.52,9.62-7.52,5.9,0,9.46,3.3,9.72,7.54v.29h-4.82v-.17c-.31-2.18-2-3.7-4.91-3.7s-4.48,1.31-4.48,3.3h0c0,1.54,1,2.59,3.7,3.23l4,.92c5.1,1.19,7,3.2,7,6.78h0c0,4.55-4.26,7.68-10.14,7.68C267.19,39.28,263.54,36.19,263,31.64Z"/><path class="cls-2" d="M287.32,7.06A3,3,0,1,1,290.38,10h-.06A3,3,0,0,1,287.32,7.06Zm.43,6.78h5.12V38.78h-5.12Z"/><path class="cls-2" d="M297.09,31.64v-.21h5.08v.24c.48,2.3,2.19,3.65,5.34,3.65s4.93-1.28,4.93-3.3h0c0-1.61-.9-2.54-3.58-3.18l-4.08-.92c-4.74-1.09-7.09-3.37-7.09-7h0c0-4.46,3.89-7.52,9.63-7.52,5.9,0,9.46,3.3,9.72,7.54v.29h-4.81v-.17c-.31-2.18-2-3.7-4.91-3.7s-4.48,1.31-4.48,3.3h0c0,1.54,1,2.59,3.7,3.23l4,.92c5.1,1.19,7,3.2,7,6.78h0c0,4.55-4.27,7.68-10.15,7.68C301.26,39.28,297.61,36.19,297.09,31.64Z"/><path class="cls-2" d="M323.05,32.21V17.92h-3.58V13.84h3.58V7.34h5.24v6.5H333v4.08h-4.67v14c0,2.54,1.13,3.3,3.29,3.3a10.67,10.67,0,0,0,1.38-.1v4a16.32,16.32,0,0,1-2.61.22C325.42,39.28,323.05,37.19,323.05,32.21Z"/><path class="cls-2" d="M335.47,26.4h0c0-7.8,4.5-13,11.5-13s11.28,5,11.28,12.52v1.73H340.59c.09,4.72,2.68,7.47,6.76,7.47,3,0,5-1.56,5.69-3.44l.07-.19H358l-.05.26c-.81,4-4.65,7.57-10.69,7.57C339.9,39.28,335.47,34.27,335.47,26.4Zm5.19-2.4h12.52c-.43-4.32-2.85-6.43-6.19-6.43S341.11,19.81,340.66,24Z"/><path class="cls-2" d="M362.21,13.84h5.12v3.77h.12c1.3-2.54,3.86-4.25,7.63-4.25,5.48,0,8.63,3.54,8.63,9.27V38.78h-5.14V23.61c0-3.75-1.76-5.86-5.31-5.86s-5.93,2.61-5.93,6.5V38.78h-5.12Z"/><path class="cls-2" d="M390.09,32.21V17.92h-3.58V13.84h3.58V7.34h5.24v6.5H400v4.08h-4.67v14c0,2.54,1.14,3.3,3.29,3.3a10.67,10.67,0,0,0,1.38-.1v4a16.32,16.32,0,0,1-2.61.22C392.46,39.28,390.09,37.19,390.09,32.21Z"/></svg>