<svg id="Layer_1" data-name="Layer 1" xmlns="http://www.w3.org/2000/svg" viewBox="0 0 306.94 304.89"><defs><style>.cls-1{fill:#fff;}</style></defs><path class="cls-1" d="M243.69,278.83c-17,0-30.72-12-30.73-26.76s13.71-26.79,30.67-26.81,30.71,12,30.73,26.76v.15C274.27,266.9,260.57,278.81,243.69,278.83Zm0-40.57c-8.75,0-15.85,6.16-15.87,13.79s7.07,13.82,15.81,13.83,15.85-6.16,15.86-13.78h0c-.06-7.59-7.11-13.71-15.8-13.72Z"/><path class="cls-1" d="M285.53,304.89H21.38C9.58,304.88,0,296.54,0,286.24V218.07c0-10.3,9.58-18.64,21.38-18.65H285.53c11.81,0,21.38,8.35,21.41,18.65v68.17C306.91,296.54,297.34,304.88,285.53,304.89ZM21.38,212.39c-3.6,0-6.51,2.54-6.51,5.68h0v68.17c0,3.14,2.91,5.68,6.51,5.68H285.53c3.6,0,6.51-2.54,6.51-5.68h0V218.07c0-3.14-2.91-5.68-6.51-5.68H21.38Z"/><path class="cls-1" d="M177.87,278.83H48.58c-11.8,0-21.37-8.35-21.38-18.65V244c0-10.29,9.58-18.63,21.38-18.65H177.87c11.8,0,21.37,8.36,21.4,18.65v16.25C199.17,270.53,189.62,278.81,177.87,278.83ZM48.58,238.35c-3.6,0-6.51,2.55-6.51,5.68h0v16.25c0,3.13,2.91,5.68,6.51,5.68H177.87c3.59,0,6.51-2.55,6.51-5.68h0V244c0-3.13-2.92-5.68-6.51-5.68H48.58Z"/><path class="cls-1" d="M248.79,241.72l-8.74-44.33,4.2-.78c14-6,22.24-17.22,20.1-28.14-1.33-6.73-6.3-12-13.36-15.14l-3-15.13a15.61,15.61,0,0,0-4.93-9.37c-.56-.48-1-.81-1.35-1l-.09-.06a2.94,2.94,0,0,1-.45-.94c0-.32-.1-.89-.2-1.81s-.17-1.57-.22-2l0-.32L219.5,14.92A18.53,18.53,0,0,0,197.77.35l-10.06,2a18.51,18.51,0,0,0-14.57,21.73l21.17,107.38.12.52c.15.54.39,1.34.69,2.31s.42,1.32.53,1.66l.09.29a3.42,3.42,0,0,1,.1,1.11l-.15.28c-.21.42-.43.85-.63,1.34a16.44,16.44,0,0,0-.74,9.75l3.38,17.16c-4,5.19-5.58,11-4.48,16.63,2.11,10.7,13.31,17.83,28.09,18.39,1.4-.27,2.81-.53,4.21-.78l8.77,44.48a7.39,7.39,0,0,0,14.5-2.86Zm-41.73-95.56a4.24,4.24,0,0,1,0-2.21,3.45,3.45,0,0,1,.21-.43,12.84,12.84,0,0,0,1.4-4.1,16.11,16.11,0,0,0-.26-6.12c-.14-.63-.28-1-.42-1.48-.09-.28-.23-.68-.46-1.4s-.4-1.31-.52-1.76L185.89,21.55a5.5,5.5,0,0,1,4.34-6.46l10.06-2a5.52,5.52,0,0,1,6.46,4.34l21.1,107.06c.05.51.12,1.17.2,1.92.21,1.8.27,2.34.36,2.85a15.66,15.66,0,0,0,3.47,7.07,12.34,12.34,0,0,0,2.45,2.16l.18.11a3.52,3.52,0,0,1,.69,1.84l1.9,9.67a52.24,52.24,0,0,0-13.13.94,51.41,51.41,0,0,0-14.88,5.35Zm30.6,39.11-.84-4.22a7.38,7.38,0,1,0-14.49,2.86l.78,4c-9.71,0-16.34-3.9-17.13-7.93-.49-2.48,1-5.56,4.07-8.41,3.92-3.63,9.9-6.45,16.43-7.74,9.14-1.8,17.24-.27,21.66,2.7a7.33,7.33,0,0,1,3.44,4.46C252.42,175.24,247.36,181.61,237.66,185.27Z"/></svg>