<svg id="Layer_1" data-name="Layer 1" xmlns="http://www.w3.org/2000/svg" viewBox="0 0 227.47 200"><g id="Layer_1-2" data-name="Layer 1-2"><path d="M193.67,0H33.79C15.16,0,0,17.13,0,38.18V161.82C0,182.87,15.16,200,33.79,200H193.67c18.64,0,33.8-17.13,33.8-38.18V38.18C227.47,17.13,212.31,0,193.67,0Zm19.47,161.82c0,12.21-8.73,22.14-19.47,22.14H33.79c-10.74,0-19.46-9.93-19.46-22.14V38.18a24.2,24.2,0,0,1,1.48-8.49l1-.87.49.55c.92,1,2.11,2.36,3.41,3.8L31.24,45c5.38,5.94,23.14,24,52.91,53.66l13.38,13.41.45.46c3.14,3.17,6.11,6.17,9.15,9.29,4.75,4.82,8.81,4.82,13.59,0l9.89-10.09,4.34-4.32,9.52-9.75c.28-.26.51-.48.71-.69l4.52-4.61,38.39-39c1.9-1.94,7.64-8.21,13.19-14.28l2.41-2.63c2.74-3,5.35-5.88,7-7.64l1,.92a24.28,24.28,0,0,1,1.49,8.46ZM33.79,16H193.67a17.66,17.66,0,0,1,2.81.23l1,.85c-9.45,9.64-21.59,22.32-33.33,34.6l-1.6,1.67c-24.23,25.37-33.87,35.21-37.46,38.92l-.37.38c-4.94,5-8.4,8.54-10.87,11L54.93,44c-2.11-2.1-6.6-6.89-12-12.83l-2.21-2.38c-4.48-4.87-8.76-9.48-11.4-12.16A17.15,17.15,0,0,1,33.79,16Z"/></g></svg>