<svg xmlns="http://www.w3.org/2000/svg" viewBox="0 0 200.21 200"><g id="Layer_1" data-name="Layer 1"><path d="M130.41,198H125.6c-4.54,0-7-2.51-7-7q0-11.73,0-23.46V146.87c0-6.6-3.61-10.24-10.18-10.26H92c-6.4,0-10.08,3.73-10.08,10.16q0,13.11,0,26.23v17.48c0,5.19-2.32,7.51-7.52,7.51h-29C32.42,198,23,188.59,23,175.69s0-25.94,0-38.92V118.36l-1.89-.1a30.19,30.19,0,0,1-4.06-.43,17.58,17.58,0,0,1-14-12.19C.87,99.23,2.14,93,6.7,87.58c.49-.58,1-1.12,1.55-1.63l.34-.34L37.46,56.74Q60.34,33.87,83.2,11l.5-.5C87.11,7.05,90.61,3.54,95.51,2l.06,0h9.3l.06,0c5,1.6,8.52,5.14,11.94,8.56q16.84,16.91,33.73,33.79Q171.39,65.15,192.13,86a20,20,0,0,1,4.44,6.09,19.19,19.19,0,0,1-1.21,17.9,18.31,18.31,0,0,1-15,8.25h-2.95v18.15q0,19.9,0,39.81a21.41,21.41,0,0,1-16.65,21.22,23.56,23.56,0,0,1-5.38.57c-5,0-10.06,0-15.07,0Zm15.31-12.43c3.24,0,5.87.06,8.29.17l.66,0a10.43,10.43,0,0,0,7.45-2.72,11.08,11.08,0,0,0,3.08-8.39c-.2-14.79-.16-29.71-.12-44.13l0-17.14c0-5.17,2.33-7.48,7.55-7.49h4c1.15,0,2.3,0,3.42,0a6.07,6.07,0,0,0,4.52-10,14.6,14.6,0,0,0-1.32-1.41L105.73,16.91c-1.58-1.57-3.34-3-5.51-3s-3.9,1.44-5.45,3L25.66,86,23,88.68l-.6.59c-2.06,2.06-4.2,4.18-6.25,6.31a5.66,5.66,0,0,0-1.24,6.57,5.76,5.76,0,0,0,5.58,3.72c1,0,2,0,3,0H27.7c5.35,0,7.64,2.28,7.64,7.6v20.3q0,21,0,42.13c0,5.91,3.82,9.73,9.7,9.74H64.93l4.61,0v-2c0-3.83,0-7.64,0-11.47,0-8.48,0-17.25,0-25.94.06-12.14,8.45-21.1,20.4-21.79,2.39-.14,5-.21,8.05-.21,2.29,0,4.57,0,6.81.07,1.85,0,3.71.07,5.58.08a16.85,16.85,0,0,1,3.5.44c10.26,2.31,16.92,10.69,17,21.35,0,8.79,0,17.65,0,26.21v13.2l2,.09,4.78,0,1.59,0C141.39,185.58,143.55,185.56,145.72,185.56Z"/><path d="M104.55,4c4.41,1.49,7.56,4.65,10.9,8L149,45.6l.18.18c13.62,13.62,27.7,27.7,41.52,41.59a18.16,18.16,0,0,1,4,5.45,17.2,17.2,0,0,1-1.05,16.05,16.29,16.29,0,0,1-13.37,7.33h-4.86v20.15c0,16.07,0,28.34,0,39.81a19.42,19.42,0,0,1-15.11,19.27,21.9,21.9,0,0,1-4.94.52c-4.48,0-9.4,0-15.05,0H125.61c-3.44,0-5-1.61-5-5q0-11.72,0-23.45V146.87c0-7.66-4.55-12.24-12.17-12.26H92c-7.44,0-12.07,4.69-12.07,12.16q0,13.11,0,26.23v17.48c0,4.12-1.39,5.51-5.52,5.51h-29c-12,0-20.32-8.37-20.34-20.3q0-19.45,0-38.92v-20.3l-3.79-.21a28.44,28.44,0,0,1-3.78-.39A15.5,15.5,0,0,1,4.94,105c-2-5.8-.86-11.22,3.28-16.12.44-.52.95-1,1.43-1.5l0,0,0,0L10,87,30.06,67l9.08-9.08C54.05,43,69.46,27.57,84.61,12.39l.54-.54C88.45,8.54,91.57,5.42,95.88,4h8.67M23.42,107.89h4.27c4.27,0,5.65,1.37,5.65,5.6v20.29q0,21.06,0,42.15c0,7,4.71,11.71,11.69,11.73H65l2.61,0,4,0v-4q0-5.74,0-11.47c0-8.48,0-17.25,0-25.93.06-11.21,7.5-19.16,18.52-19.81,2.35-.13,4.87-.2,7.93-.2,2.3,0,4.58,0,6.76.07s3.93.07,5.64.08a14.51,14.51,0,0,1,3,.39c9.32,2.1,15.38,9.71,15.43,19.4,0,8.79,0,17.64,0,26.21,0,1.87,0,3.73,0,5.6v9.69h4l4.8,0,1.6,0c2.38,0,4.48-.05,6.43-.05,3.21,0,5.81.06,8.22.17l.73,0a12.4,12.4,0,0,0,8.84-3.28,13,13,0,0,0,3.69-9.86c-.2-14.78-.16-29.68-.12-44.1l0-17.14c0-4.1,1.4-5.48,5.55-5.49h4c1.11,0,2.29,0,3.45,0a8.08,8.08,0,0,0,6.08-13.2,16.49,16.49,0,0,0-1.48-1.59L107.14,15.49c-1.79-1.78-4-3.61-6.92-3.61s-5.1,1.81-6.86,3.57L24.24,84.57l-2.7,2.69-.6.6c-2.07,2.06-4.21,4.19-6.27,6.32A7.64,7.64,0,0,0,13,103a7.82,7.82,0,0,0,7.41,4.92l3,0M105.19,0H95.28l-.36.11c-5.39,1.68-9.07,5.37-12.63,8.94l-.51.51Q54.53,36.89,27.23,64.15L7.15,84.21l-.3.32c-.56.54-1.13,1.12-1.68,1.76-5,6-6.43,12.87-4,20A19.51,19.51,0,0,0,16.67,119.8a31,31,0,0,0,4.33.45v16.52q0,19.47,0,38.93C21,189.75,31.26,200,45.34,200h29c6.32,0,9.52-3.2,9.52-9.51V173q0-13.12,0-26.23c0-5.32,2.8-8.14,8.09-8.16h16.4c5.42,0,8.18,2.79,8.18,8.26V167.5q0,11.75,0,23.46c0,5.64,3.39,9,9,9h14.72c5,0,10.07,0,15.07,0a25.77,25.77,0,0,0,5.84-.62,23.38,23.38,0,0,0,18.19-23.16q0-19.91,0-39.82V120.21h1A20.26,20.26,0,0,0,197,111a21.13,21.13,0,0,0,1.38-19.73,21.92,21.92,0,0,0-4.87-6.74Q172.82,63.72,152,43,135.15,26.07,118.28,9.17c-3.58-3.59-7.3-7.31-12.73-9L105.19,0ZM23.42,103.89l-2.93,0a3.82,3.82,0,0,1-3.79-2.5,3.68,3.68,0,0,1,.84-4.4c2.23-2.32,4.57-4.63,6.82-6.87l2.71-2.7L96.18,18.28c1.6-1.6,2.82-2.4,4-2.4s2.46.82,4.09,2.44L181.89,95.9A12.72,12.72,0,0,1,183,97.12a3.78,3.78,0,0,1,.61,4.39,3.74,3.74,0,0,1-3.6,2.35c-1.11,0-2.25,0-3.38,0h-4c-6.34,0-9.55,3.2-9.55,9.49l0,17.14c0,14.47-.08,29.43.12,44.15a9.16,9.16,0,0,1-2.47,6.93,8.46,8.46,0,0,1-6.06,2.16h-.56c-2.79-.14-5.6-.18-8.39-.18-2.18,0-4.35,0-6.48.05s-4.24,0-6.35,0v-.09c0-3.74,0-7.46,0-11.2,0-8.59,0-17.48,0-26.22-.06-11.63-7.35-20.77-18.55-23.29a18.38,18.38,0,0,0-3.92-.49c-1.86,0-3.71,0-5.55-.08-2.26,0-4.55-.07-6.85-.07-2.72,0-5.45,0-8.17.21-13,.76-22.21,10.54-22.28,23.77,0,8.66,0,17.46,0,26,0,3.82,0,7.63,0,11.46l-2.61,0H45c-4.75,0-7.69-3-7.7-7.74q0-21.07,0-42.13v-20.3c0-6.45-3.16-9.59-9.64-9.6H23.42Z"/></g></svg>