<svg id="Layer_1" data-name="Layer 1" xmlns="http://www.w3.org/2000/svg" viewBox="0 0 200.18 200"><g id="Layer_1-2" data-name="Layer 1"><path d="M198.38,91.27a21.94,21.94,0,0,0-4.87-6.74Q172.83,63.72,152,43,135.16,26.07,118.28,9.17c-3.58-3.59-7.3-7.31-12.73-9L105.19,0H95.28l-.36.11c-5.39,1.68-9.07,5.37-12.63,8.94l-.51.51Q54.53,36.89,27.23,64.15L7.15,84.21l-.3.32c-.56.54-1.13,1.12-1.68,1.76-5,6-6.43,12.87-4,20a19.51,19.51,0,0,0,15.5,13.51,31.47,31.47,0,0,0,4.33.45V175.7C21,189.75,31.26,200,45.34,200h29c6.32,0,9.52-3.2,9.52-9.51V146.77c0-5.32,2.8-8.14,8.09-8.16h16.4c5.42,0,8.18,2.79,8.18,8.26V191c0,5.64,3.39,9,9,9h29.79a25.54,25.54,0,0,0,5.84-.62,23.38,23.38,0,0,0,18.19-23.16v-56h1A20.24,20.24,0,0,0,197,111,21.12,21.12,0,0,0,198.38,91.27Zm-35.3,22.08v17.14c0,14.47-.08,29.43.12,44.15a9.15,9.15,0,0,1-2.47,6.93,8.44,8.44,0,0,1-6.06,2.16h-.56c-2.79-.14-5.6-.18-8.39-.18-2.18,0-4.35,0-6.48,0s-4.24,0-6.35,0V146.09c-.06-11.63-7.35-20.77-18.55-23.29a18.53,18.53,0,0,0-3.92-.49c-1.86,0-3.71,0-5.55-.08-2.26,0-4.55-.07-6.85-.07-2.72,0-5.45,0-8.17.21-13,.76-22.21,10.54-22.28,23.77V183.6H45c-4.75,0-7.69-3-7.7-7.74V113.43c0-6.45-3.16-9.59-9.64-9.6H23.42v.06H20.49a3.81,3.81,0,0,1-3.79-2.5,3.68,3.68,0,0,1,.84-4.4c2.23-2.32,4.57-4.63,6.82-6.87l2.71-2.7L96.18,18.28c1.6-1.6,2.82-2.4,4-2.4s2.46.82,4.09,2.44L181.89,95.9A11.64,11.64,0,0,1,183,97.12a4.08,4.08,0,0,1-3,6.74h-7.38C166.29,103.86,163.08,107.06,163.08,113.35Z" transform="translate(-0.01)"/></g></svg>