<svg xmlns="http://www.w3.org/2000/svg" viewBox="0 0 96.43 200"><g id="Layer_1" data-name="Layer 1"><path d="M61,67.91A34.75,34.75,0,0,1,32.72,53.6a32.18,32.18,0,0,1-5.84-26.13A34,34,0,0,1,43.36,4.88,35.14,35.14,0,0,1,49.8,2.07l.89-.89,2,0L53,1.05a17.9,17.9,0,0,1,6.1-1h4.53a18.66,18.66,0,0,1,4.07.45l.19,0,.22.06,1.07.27.72.18A34.27,34.27,0,0,1,92.78,18.88a33,33,0,0,1,1.06,27.9h0a34.35,34.35,0,0,1-10.74,14A34.88,34.88,0,0,1,66.71,67.5,40.81,40.81,0,0,1,61,67.91ZM55.09,16.07a21.14,21.14,0,0,0-4.3,1.77,19.1,19.1,0,0,0-9.28,12.64,17.44,17.44,0,0,0,3.15,14.14A19.63,19.63,0,0,0,61,53a25.63,25.63,0,0,0,3.56-.26A20,20,0,0,0,74,48.91a19.44,19.44,0,0,0,6-8,18,18,0,0,0-.63-15.28,19.4,19.4,0,0,0-12.93-10.1l-1-.25L64.35,15a3.21,3.21,0,0,0-.68-.07H59.14a2.82,2.82,0,0,0-1,.17l-.33.11,0,0Zm-.9,0h0Z"/><path d="M48.92,200a45.32,45.32,0,0,1-19.78-4.42c-12.79-6.14-20.1-17.86-20-32.15,0-8.43,1.93-15.86,3.69-22.16,1.69-6.06,3.23-11.7,4.66-17A18.06,18.06,0,0,1,.54,101.83l.8-3.24c.36-1.48.72-2.91,1.1-4.34a19.17,19.17,0,0,1,11.75-13l1.05-.41,1.43-.55.17-.07c5.65-2.2,12.07-4.7,19.35-6,11.1-2,20.76-.8,29.54,3.49,12.52,6.12,20,18.94,19.38,33.45-.36,9.18-2.68,17.27-4.73,24.4-.61,2.11-1.22,4.24-1.72,6.21-.47,1.82-1,3.6-1.43,5.39L77,148c-.1.38-.2.77-.31,1.15a18.07,18.07,0,0,1,17.34,22.28h0l-.43,1.77c-.51,2.14-.91,3.82-1.39,5.63a19.69,19.69,0,0,1-12,13.19c-1.31.48-2.58,1-3.84,1.48l-.38.15A116.28,116.28,0,0,1,63.36,198,56.39,56.39,0,0,1,48.92,200ZM36.63,105.65l-1.55,9.92c-.14.84-.3,1.6-.49,2.33-2.15,8.28-4.57,17.25-7.4,27.38-1.5,5.38-3.11,11.66-3.14,18.23,0,8.52,4,15,11.55,18.61,7.08,3.4,13.41,2.76,23.93,1.47.67-.08,10.24-1.34,15.55-5.58a11.9,11.9,0,0,0,2.73-3,12.35,12.35,0,0,0,1.73-7.05,3.16,3.16,0,0,0-.71-2.82,3.11,3.11,0,0,0-2.46-1l-.51,0-.17,0-18,3.28,1.55-9.73c.12-.72.28-1.44.42-2,.93-3.89,2-7.75,2.94-11.49l.19-.72c.48-1.81.94-3.54,1.39-5.3.56-2.17,1.21-4.44,1.83-6.57,1.83-6.37,3.88-13.54,4.18-20.92.33-8.5-3.9-16-11-19.44-6.73-3.29-13.11-3.1-20.41-2.19a53.71,53.71,0,0,0-19.29,6.26,11.65,11.65,0,0,0-2.59,2.78c-2.15,3.24-3.26,8.51-1,10.41a4,4,0,0,0,3.11.69Zm37.55,59h0Z"/></g></svg>