<svg id="Layer_1" data-name="Layer 1" xmlns="http://www.w3.org/2000/svg" viewBox="0 0 183.12 200.77"><path d="M190.79,187.75,142,77.6a9,9,0,0,0-6.75-5.19,8.69,8.69,0,0,0-8.91,4.89l-34,76.12a3.45,3.45,0,0,0-.19.34L76.89,187.67a8.87,8.87,0,0,0,4.52,11.81A9,9,0,0,0,93.19,195l13-28.74h55.59l12.73,28.69a8.83,8.83,0,0,0,8.14,5.31,9.73,9.73,0,0,0,3.48-.67l.21-.09A9,9,0,0,0,190.79,187.75Zm-36.93-39.34H114.17l20-44.46Z" transform="translate(-8.42 0.52)"/><path d="M98,109.72a8.91,8.91,0,0,1-7.61,8.79,56.91,56.91,0,0,1-8.64.63c-15.72,0-28.89-6.24-37.83-11.38-5.8,5.69-13.32,10.95-24.63,10.95-.81,0-1.61-.06-2.37-.11h-.19a8.93,8.93,0,0,1,.87-17.84H18c4.23.3,7.41-.68,11.07-3.66a50.4,50.4,0,0,1-7.84-10.23,51.17,51.17,0,0,1-6.34-18,8.92,8.92,0,0,1,17.64-2.72,32.71,32.71,0,0,0,4.12,11.74,31.73,31.73,0,0,0,4.44,6C51.15,70.42,53.81,55.77,54.65,42.64H17.35a8.92,8.92,0,0,1,0-17.84H55c0-2.33-.06-4.67-.09-7-.05-2.9-.11-6.2-.11-9.38a9,9,0,0,1,8.86-9,8.94,8.94,0,0,1,9,8.92c0,3.11.06,6.32.11,9.15,0,2.26.07,4.72.09,7.25h16.2a8.92,8.92,0,1,1,0,17.84H72.52c-.87,15.22-3.94,33.92-16.67,51.26,11.86,6.27,21.84,8.42,32,6.95a8.8,8.8,0,0,1,6.57,1.66,8.92,8.92,0,0,1,3.52,5.9A8.35,8.35,0,0,1,98,109.72Z" transform="translate(-8.42 0.52)"/></svg>