<?xml version="1.0" encoding="utf-8"?>
<!-- Generator: Adobe Illustrator 24.3.0, SVG Export Plug-In . SVG Version: 6.00 Build 0)  -->
<svg version="1.1" id="Layer_1" xmlns="http://www.w3.org/2000/svg" xmlns:xlink="http://www.w3.org/1999/xlink" x="0px" y="0px"
	 viewBox="0 0 151 200" style="enable-background:new 0 0 151 200;" xml:space="preserve">
<g id="Layer_1_1_">
	<path d="M138,81L138,81c-1.8-0.5-3.5-1-5.3-1.3v-0.4c0-2.3,0-4.6,0-6.9c0-4.3,0-9.2,0-13.8c0-3.6-0.2-7.1-0.7-10.6
		C127.1,16.8,97.8-4.5,66.7,0.4C40.1,4.6,20.1,26.8,18.6,53.7c-0.3,5.7-0.2,11.4-0.2,17v2.1c0,2.1,0,4.2,0,6.3v0.7l-0.7,0.1
		c-1,0.2-2,0.3-3.1,0.6C5.5,83,0,90.6,0,100.6V147c0,3.4,0,6.8,0,10.2v0.5c0,7,0,14.2,0,21.4C0.1,191.2,8.7,200,20.4,200
		c10.7,0,21.4,0,32.1,0c26.1,0,52.4,0,78.1-0.1c3.1,0,6.1-0.7,8.9-2c7.7-3.6,11.5-10,11.5-19.2v-78C151,91.3,146.1,83.9,138,81z
		 M34.8,57.3C35,37.2,47.6,21.5,67,17.1c21.9-4.9,43.6,8.9,48.5,30.8c0.5,2.4,0.8,4.8,0.9,7.2c0.2,5.9,0.1,11.8,0,17.4v1.7
		c0,1.8,0,3.5,0,5.3H34.8v-0.1c0-2.5,0-4.9,0-7.4v-1.8c0-1.9,0-3.8,0-5.8C34.7,62.1,34.7,59.7,34.8,57.3z M134.9,178.3
		c0,4.4-1.1,5.5-5.5,5.5H21.8c-4.4,0-5.5-1.1-5.5-5.5v-76.9c0-4.5,1.1-5.6,5.6-5.6h107.5c4.3,0,5.4,1.1,5.4,5.3L134.9,178.3z"/>
	<path d="M96.5,130.6c0,2-0.3,4.1-0.9,6c-1.7,5.7-5.8,10.4-11.2,12.9v11.6c0,4.9-4,8.9-8.9,8.9c-4.9,0-8.9-4-8.9-8.9v-11.5
		c-10.5-4.9-15-17.4-10.1-27.9s17.4-15,27.9-10.1C91.8,115,96.5,122.4,96.5,130.6L96.5,130.6z"/>
</g>
</svg>
