<svg xmlns="http://www.w3.org/2000/svg" viewBox="0 0 151.01 200"><g id="Layer_1" data-name="Layer 1"><path d="M138,81h0c-1.77-.53-3.54-1-5.29-1.34v-.39c0-2.29,0-4.6,0-6.89,0-4.3,0-9.16,0-13.84a72.08,72.08,0,0,0-.74-10.65A57.05,57.05,0,0,0,18.65,53.72c-.28,5.65-.25,11.4-.22,17v2.07c0,2.09,0,4.18,0,6.27v.68l-.69.12c-1,.17-2,.33-3.06.59C5.51,83,0,90.55,0,100.63V147c0,3.41,0,6.81,0,10.22v.49c0,7,0,14.22,0,21.42C.12,191.23,8.7,200,20.44,200q16,0,32.06,0c26.12,0,52.41,0,78.12-.12a21.68,21.68,0,0,0,8.85-2c7.66-3.55,11.54-10,11.54-19.2V100.64C151,91.27,146.14,83.91,138,81ZM34.76,57.33C35,37.23,47.58,21.45,67,17.11a40.62,40.62,0,0,1,49.4,38c.16,5.92.11,11.78,0,17.44v1.68c0,1.75,0,3.53,0,5.3H34.76v-.06c0-2.46,0-4.93,0-7.39v-1.8c0-1.91,0-3.84,0-5.78C34.73,62.11,34.74,59.71,34.76,57.33ZM134.85,178.26c0,4.37-1.15,5.5-5.52,5.5H21.78c-4.37,0-5.5-1.13-5.5-5.49V101.41c0-4.47,1.1-5.56,5.6-5.56H129.43c4.3,0,5.42,1.1,5.42,5.35Z"/><path d="M96.54,130.6a21.17,21.17,0,0,1-.88,6A20.76,20.76,0,0,1,84.47,149.5v11.61A8.91,8.91,0,0,1,75.55,170a8.92,8.92,0,0,1-8.91-8.92V149.55a21,21,0,1,1,29.9-19Z"/></g></svg>