<svg xmlns="http://www.w3.org/2000/svg" viewBox="0 0 236 200.11"><g id="Layer_1" data-name="Layer 1"><path d="M161.75,98.38a74.88,74.88,0,0,0-29.55,6.27A74.35,74.35,0,0,0,77.1,80.12H74.25A74.34,74.34,0,0,0,0,154.38v25.74a20,20,0,0,0,20,20H216a20,20,0,0,0,20-20v-7.49A74.34,74.34,0,0,0,161.75,98.38ZM216,184.12H151a19.67,19.67,0,0,0,.4-4V154.38A74.32,74.32,0,0,0,141.83,118a59.29,59.29,0,0,1,19.92-3.64A58.33,58.33,0,0,1,220,172.63v7.49A4,4,0,0,1,216,184.12Zm-80.65-4a4.05,4.05,0,0,1-4,4H20a4,4,0,0,1-4-4V154.38A58.33,58.33,0,0,1,74.25,96.11H77.1a58.34,58.34,0,0,1,58.27,58.27Z"/><path d="M75.68,0a35.55,35.55,0,1,0,35.55,35.55A35.59,35.59,0,0,0,75.68,0Zm0,55.12A19.57,19.57,0,1,1,95.24,35.55,19.59,19.59,0,0,1,75.68,55.12Z"/><path d="M166,27.1A30.67,30.67,0,1,0,196.7,57.77,30.71,30.71,0,0,0,166,27.1Zm0,45.35a14.68,14.68,0,1,1,14.67-14.68A14.7,14.7,0,0,1,166,72.45Z"/></g></svg>