<svg id="Layer_1" data-name="Layer 1" xmlns="http://www.w3.org/2000/svg" viewBox="0 0 161.44 200"><path d="M153,45.37C141.79,22.68,123.36,8.09,98.18,2A84.56,84.56,0,0,0,89.79.57l-1-.14C87.88.3,87,.18,86,0L75.34,0,73,.29c-1.5.19-3,.4-4.58.63A80.78,80.78,0,0,0,31.91,16.58,79.45,79.45,0,0,0,5.25,52.43a78.55,78.55,0,0,0,.33,57.3C11.06,124,19.12,138,30.21,152.43c12,15.64,26.67,30.44,44.89,45.22A9,9,0,0,0,80.66,200h.23a8.49,8.49,0,0,0,5.57-2.51c2.11-1.88,4.22-3.73,6.35-5.58,6.26-5.52,12.73-11.21,18.85-17.27,18.71-18.58,32.44-38.07,42-59.6a85.09,85.09,0,0,0,7.79-34.69A78.34,78.34,0,0,0,153,45.37Zm-12.85,61.85-.56,1.18c-9.39,21-23.46,40.45-43,59.38-3.72,3.62-7.53,7.05-11.56,10.66l-.15.13-2.22,2-2,1.77c-1-.88-2-1.75-3-2.6l-1-.86c-2.8-2.48-5.46-4.81-8.1-7.26A217.84,217.84,0,0,1,35.27,133c-8.13-12.23-13.48-22.85-16.81-33.4A62.37,62.37,0,0,1,18,63,63.69,63.69,0,0,1,46,25.59a62.25,62.25,0,0,1,34.05-10.1h.09a67.55,67.55,0,0,1,7.4.41c18,2,32.93,10.31,44.41,24.75a62.51,62.51,0,0,1,12.34,26.27A67.13,67.13,0,0,1,140.14,107.22Z"/><path d="M114.61,44.35A48.05,48.05,0,0,0,80.76,30.07h-.25C54.57,30.07,33.24,51.42,33,77.65a47.08,47.08,0,0,0,13.63,33.54,48.06,48.06,0,0,0,34,14.43h.28c26,0,47.34-21.35,47.52-47.58A47.59,47.59,0,0,0,114.61,44.35Zm-1.13,34a33.09,33.09,0,0,1-32.69,32.71H80.5a32.89,32.89,0,0,1-23.16-9.62A33.26,33.26,0,0,1,50,90.61a32.44,32.44,0,0,1-2.52-12.75A33.42,33.42,0,0,1,80.59,44.6h.17a33.24,33.24,0,0,1,32.72,33.78Z"/></svg>