<svg id="Layer_1" data-name="Layer 1" xmlns="http://www.w3.org/2000/svg" viewBox="0 0 147 200"><path d="M70.85,148.38c-1,0-2,0-3.08,0A20.57,20.57,0,0,1,53,142.17a20,20,0,0,1-5.3-14.64c.61-16,6.64-29,17.94-38.72,4.51-3.88,9.14-7.73,13.62-11.46q4.11-3.42,8.21-6.85l.67-.57c2.8-2.34,5.21-4.37,6.32-6.66,2.83-5.84,1.34-11.83-4-16-4-3.12-8.91-4.61-15.56-4.69-8.46-.12-14.46,2.08-19,6.84a35,35,0,0,0-3.65,5.05c-.47.74-1,1.49-1.44,2.22-.07.14-.19.44-.28.66-.21.51-.42,1-.66,1.5C45.73,67.5,38.15,71.71,28.5,70.67c-4.39-.48-9.14-1-14.95-1.79-6.09-.78-9.36-3.75-11-6.1S-.83,56.43.44,50.55C3.86,34.74,13.12,21.75,28,12,38,5.32,49.92,1.52,64.3.36c.45,0,.89-.11,1.34-.17l.93-.12L67.1,0H78.6l.54.07c1.38.18,2.75.33,4.13.49,3.19.36,6.49.73,9.84,1.37,20,3.76,35.26,13.58,45.45,29.18,13,19.89,10.87,43.1-5.49,60.57-7.11,7.6-15,14.19-22.72,20.57l-1.62,1.34c-1.35,1.13-2.67,2.3-4.07,3.55-.85.75-1.7,1.51-2.56,2.25A15.06,15.06,0,0,0,96.53,130c-1.09,11.32-9.16,18.36-21.07,18.37H70.85ZM74.34,25.6h.72c10.44.12,18.91,2.84,25.87,8.31,11.53,9,15.07,23.8,8.81,36.73-2.7,5.56-6.94,9.12-10.69,12.26l-.65.55q-4.12,3.48-8.28,6.92c-4.43,3.68-9,7.48-13.41,11.27-7.68,6.62-11.63,15.3-12,26.53a3.23,3.23,0,0,0,.65,2.32,3.89,3.89,0,0,0,2.74.9c1.75,0,3.49,0,5.24,0h2.15c3.87,0,4-1.08,4.16-3a32.1,32.1,0,0,1,11.33-21.77l2.41-2.13c1.45-1.28,2.94-2.61,4.5-3.91l1.63-1.36c7.61-6.31,14.8-12.28,21.18-19.1,10.92-11.67,12.29-26.52,3.66-39.74C116.65,28.62,105.41,21.5,90,18.59c-2.74-.52-5.59-.84-8.61-1.18-1.28-.15-2.56-.29-3.84-.45L68,17c-.76.11-1.52.21-2.29.27C54.22,18.19,45,21.08,37.35,26.1c-10.57,7-17.08,15.55-19.85,26.19,4.89.62,9,1.1,12.82,1.52,2.59.27,3.22-.23,4.19-2.26.1-.22.2-.45.29-.68a19,19,0,0,1,1.8-3.53c.45-.67.89-1.35,1.33-2a48.46,48.46,0,0,1,5.6-7.56C51.17,29.69,61.53,25.6,74.34,25.6ZM15.22,52Z"/><path d="M71.85,200c-1.74,0-3.44,0-5.08-.1-9.6-.38-17.09-6.46-18.76-14.83h-.35v-3.42c0-1.21,0-2.37,0-3.48,0-.15,0-.3,0-.44v-1.14c0-.52,0-1.05,0-1.57,0-1.25,0-2.55,0-3.91.32-10.08,8.53-17.6,19.52-17.89,3-.08,6.18-.08,9.4,0,10.57.25,18.55,7,19.41,16.42a76.37,76.37,0,0,1,0,13.94c-.87,9.26-8.7,16-19.06,16.33C75.19,200,73.5,200,71.85,200Zm-7.19-28.42v5c0,.59,0,1.18,0,1.78,0,1.13,0,2.21,0,3.19,0,.72,1.26,1.34,2.8,1.4,2.77.11,5.76.11,8.87,0,1.88-.06,2.64-.77,2.7-.89a59.25,59.25,0,0,0,0-10.9c0-.39-1.16-1-2.9-1-2.92-.07-5.8-.07-8.53,0C66.64,170.2,64.77,170.53,64.66,171.58Z"/></svg>