<svg id="Layer_1" data-name="Layer 1" xmlns="http://www.w3.org/2000/svg" viewBox="0 0 146.18 200"><path d="M70.45,153q-1.53,0-3.06,0a20.29,20.29,0,0,1-14.57-6.15,20.52,20.52,0,0,1-5.41-15.06C48,115.36,54,102,65.13,92c4.49-4,9.1-8,13.55-11.87q4.09-3.54,8.16-7.09l.67-.59c2.8-2.44,5.21-4.55,6.35-7a13.86,13.86,0,0,0-4-17.19C85.88,45,81,43.5,74.44,43.42c-8.31-.1-14.28,2.14-18.75,7.06A36.7,36.7,0,0,0,52,55.75c-.47.78-1,1.55-1.44,2.32-.08.15-.21.49-.31.74-.2.51-.41,1-.64,1.53C45.55,69.27,38,73.59,28.31,72.51,24,72,19.23,71.43,13.44,70.66c-6-.8-9.21-3.75-10.87-6.08S-.82,58.16.43,52.14C3.8,35.88,13,22.51,27.7,12.4c10-6.88,21.87-10.82,36.22-12,.44,0,.87-.1,1.31-.17l.94-.13L66.72,0H78.19l.56.08c1.36.18,2.73.34,4.1.5C86,1,89.32,1.34,92.66,2c19.89,3.9,35.1,14.06,45.22,30.19,12.77,20.36,10.69,44.15-5.43,62.07-7.06,7.86-14.95,14.68-22.58,21.28l-1.62,1.39c-1.35,1.17-2.67,2.39-4.06,3.68-.84.78-1.68,1.56-2.53,2.33A16.42,16.42,0,0,0,96,134.21c-1.06,11.55-9.09,18.74-21,18.75h-4.6ZM73.93,26.51h.72c10.45.13,18.9,2.95,25.85,8.63a30.89,30.89,0,0,1,8.69,37.43c-2.65,5.69-6.85,9.36-10.56,12.6l-.65.56q-4.1,3.6-8.23,7.16c-4.4,3.81-9,7.75-13.34,11.68-7.72,6.92-11.68,16-12.11,27.79a3.89,3.89,0,0,0,.79,2.8,3.66,3.66,0,0,0,2.59.89c1.71,0,3.43,0,5.14,0H75c3.67,0,3.92-1.05,4.13-3.4A33.24,33.24,0,0,1,90.32,110.4l2.38-2.19c1.44-1.34,2.93-2.71,4.49-4.06l1.62-1.4C106.38,96.2,113.53,90,119.88,83c11-12.25,12.39-27.87,3.67-41.78C115.91,29,104.74,21.6,89.4,18.59c-2.71-.53-5.54-.86-8.53-1.22l-3.8-.46-9.43,0c-.68.1-1.45.21-2.3.28-11.34,1-20.53,3.94-28.07,9.12-10.7,7.35-17.25,16.45-20,27.78,4.93.65,9.06,1.16,12.88,1.59,2.26.25,3,0,4.08-2.41.11-.24.2-.48.3-.73A19.48,19.48,0,0,1,36.32,49c.45-.69.88-1.4,1.32-2.11a50.46,50.46,0,0,1,5.54-7.78C50.79,30.74,61.13,26.51,73.93,26.51ZM50.54,58.14h0ZM15.23,53.81Z"/><path d="M71.72,200c-1.7,0-3.36,0-5-.08-9.11-.3-16.32-5.26-18.48-12.26a22.35,22.35,0,0,1-.67-4.28c0-.36,0-1.56,0-2.94v-1.26c0-.42,0-.85,0-1.27,0-1.07,0-2.17,0-3.36.34-9.12,8.56-15.92,19.52-16.16,3-.06,6.16-.07,9.31,0,10.66.21,18.45,6.14,19.4,14.76a55,55,0,0,1,0,12.1c-1,8.35-8.78,14.39-19.06,14.68C75,200,73.34,200,71.72,200Zm-7.19-17.65a6.61,6.61,0,0,0,2.76.61c2.83.09,5.77.09,9,0a7.42,7.42,0,0,0,2.76-.54,36.41,36.41,0,0,0,0-6.52,7.86,7.86,0,0,0-3-.54c-2.92-.06-5.81-.06-8.6,0a7.14,7.14,0,0,0-2.93.59v3.23c0,.5,0,1,0,1.51S64.52,181.83,64.53,182.35Z"/></svg>