<svg xmlns="http://www.w3.org/2000/svg" viewBox="0 0 199.68 200"><g id="Layer_1" data-name="Layer 1"><path d="M194,143.81c-8.5-9-17.48-18-28.29-28.37A20.05,20.05,0,0,0,142,112.56a51.8,51.8,0,0,0-9.14,7.29l-.17.15c-2.27,2.12-4.51,4.4-6.67,6.59l-1.24,1.26c-.74.77-1.51,1.56-2.28,2.34-.52-.28-1-.55-1.56-.85-2.07-1.11-4-2.12-5.74-3.26a133.72,133.72,0,0,1-25.93-21.83C82.56,97.13,75,88.41,69.74,77.74l-.16-.22.26-.22L72.2,75l2.65-2.63c3.35-3.33,6.8-6.76,10-10.35a20.57,20.57,0,0,0-.15-27.71C75.09,24,66.18,15,57.42,6.8,47.89-2.13,36.7-2.27,26.71,6.39c-4.13,3.54-8,7.55-11.74,11.42l-1.4,1.46c-1.31,1.36-2.65,2.74-4,4.11A32.21,32.21,0,0,0,1,39.84C.68,41.57.48,43.35.32,44.92.24,45.45.17,46,.11,46.55L0,47.22l0,3.11,0,.25c.11.87.21,1.76.31,2.63l.12,1c.27,2.32.54,4.72,1,7.1a119.24,119.24,0,0,0,11.33,31.5,216.9,216.9,0,0,0,32.86,47.64A217.25,217.25,0,0,0,90,177.54c15.56,9.82,29.22,16.07,43,19.67a102,102,0,0,0,13.49,2.48c1.52.14,3.64.32,6,.31a36.72,36.72,0,0,0,4.91-.34c7.66-1,13.76-3.82,18.65-8.52,7.63-7.38,13.27-13.21,18.27-18.9a21.45,21.45,0,0,0,5.41-14.13A20.8,20.8,0,0,0,194,143.81Zm-26.91,33.82c-4.13,4.37-9.21,6.41-16,6.41h-.31a67.36,67.36,0,0,1-19.63-4.13c-27.87-10.3-52.74-27.42-73.95-50.88A189,189,0,0,1,27.56,86.35C22.41,76,19.19,67.17,17.39,58.58c-1.22-5.86-2-12.1.26-17.95a24.58,24.58,0,0,1,4.71-7.26c3.69-4,7.66-7.88,11.17-11.3l3-2.87c2-1.95,3.8-2.94,5.45-2.94s3.59,1,5.61,3C55.27,27,63.08,34.81,70.66,42.4a18.18,18.18,0,0,1,1.49,1.65c2.52,3,2.5,5.6-.05,8.27-4.85,5.09-10.2,10.25-14.48,14.4h0c-5.52,5.39-6.27,9.35-3.09,16.29,5.81,12.84,14.76,23.35,21.89,31.06a147,147,0,0,0,33.05,27.35c2.11,1.25,4.33,2.39,6.46,3.48l1.87,1c4.94,2.52,9.7,1.75,13.77-2.24,2.25-2.22,4.53-4.49,6.75-6.71L140.2,135l5.48-5.48a25.1,25.1,0,0,1,2-1.86c2.8-2.2,5.51-2.1,8.07.3,1.65,1.5,3.25,3.12,4.8,4.68l19,19c.65.66,1.41,1.44,2.08,2.25l.12.13a5.9,5.9,0,0,1,.15,8.14l-.08.09a34.69,34.69,0,0,1-2.45,2.7l-4.7,4.78C172.23,172.28,169.59,175,167.05,177.63Z"/></g></svg>